<svg width="37" height="36" viewBox="0 0 37 36" fill="none" xmlns="http://www.w3.org/2000/svg">
<rect x="0.814453" y="0.788086" width="35.2959" height="34.6874" rx="17.3437" fill="#F4F4F4"/>
<path d="M22.8165 25.2704C21.9716 26.0894 21.0491 25.9601 20.1612 25.5721C19.2215 25.1755 18.3593 25.1583 17.3679 25.5721C16.1265 26.1066 15.4713 25.9514 14.7298 25.2704C10.5227 20.9339 11.1435 14.3301 15.9196 14.0888C17.0834 14.1491 17.8938 14.7267 18.5749 14.7784C19.5922 14.5715 20.5664 13.9767 21.6526 14.0543C22.9544 14.1577 23.9372 14.675 24.5838 15.6061C21.894 17.2182 22.532 20.7615 24.9976 21.7529C24.5062 23.0461 23.8683 24.3307 22.8079 25.279L22.8165 25.2704ZM18.4887 14.037C18.3593 12.1145 19.9198 10.5282 21.713 10.373C21.963 12.5973 19.6956 14.2526 18.4887 14.037Z" fill="#838383"/>
</svg>
