<svg width="16" height="16" viewBox="0 0 16 16" fill="none" xmlns="http://www.w3.org/2000/svg">
<path d="M15.113 13.8862C15.2135 13.9863 15.2933 14.1054 15.3477 14.2364C15.4021 14.3675 15.4301 14.508 15.4301 14.6498C15.4301 14.7917 15.4021 14.9322 15.3477 15.0633C15.2933 15.1943 15.2135 15.3134 15.113 15.4135C14.9095 15.6143 14.6352 15.7269 14.3493 15.7269C14.0635 15.7269 13.7891 15.6143 13.5857 15.4135L7.88058 9.70844L2.1755 15.4135C1.97205 15.6143 1.69769 15.7269 1.41183 15.7269C1.12596 15.7269 0.851605 15.6143 0.648155 15.4135C0.547645 15.3134 0.467896 15.1943 0.413481 15.0633C0.359066 14.9322 0.331055 14.7917 0.331055 14.6498C0.331055 14.508 0.359066 14.3675 0.413481 14.2364C0.467896 14.1054 0.547645 13.9863 0.648155 13.8862L6.35323 8.1811L0.648155 2.47602C0.445617 2.27348 0.331832 1.99878 0.331832 1.71235C0.331832 1.57052 0.359767 1.43008 0.414042 1.29905C0.468316 1.16802 0.547868 1.04896 0.648155 0.948678C0.748442 0.848391 0.8675 0.768839 0.998531 0.714565C1.12956 0.66029 1.27 0.632355 1.41183 0.632355C1.69826 0.632355 1.97296 0.74614 2.1755 0.948678L7.88058 6.65376L13.5857 0.948678C13.7882 0.74614 14.0629 0.632355 14.3493 0.632355C14.6358 0.632355 14.9105 0.74614 15.113 0.948678C15.3155 1.15122 15.4293 1.42592 15.4293 1.71235C15.4293 1.99878 15.3155 2.27348 15.113 2.47602L9.40792 8.1811L15.113 13.8862Z" fill="white"/>
</svg>
