<svg width="25" height="25" viewBox="0 0 25 25" fill="none" xmlns="http://www.w3.org/2000/svg">
<path d="M16.9726 10.4023L15.3826 10.4019L15.3836 5.40194C15.3837 4.85194 14.9338 4.40185 14.3838 4.40174L10.3838 4.40092C9.83379 4.40081 9.3837 4.85072 9.38359 5.40072L9.38257 10.4007L7.79257 10.4004C6.90257 10.4002 6.45235 11.4801 7.08222 12.1102L11.6713 16.7012C12.0612 17.0913 12.6912 17.0914 13.0813 16.7015L17.6722 12.1124C18.3023 11.4825 17.8626 10.4024 16.9726 10.4023ZM5.38053 20.3999C5.38041 20.9499 5.83032 21.4 6.38032 21.4001L18.3803 21.4026C18.9303 21.4027 19.3804 20.9528 19.3805 20.4028C19.3806 19.8528 18.9307 19.4027 18.3807 19.4026L6.38073 19.4001C5.83073 19.4 5.38064 19.8499 5.38053 20.3999Z" fill="white"/>
</svg>
