<svg width="37" height="35" viewBox="0 0 37 35" fill="none" xmlns="http://www.w3.org/2000/svg">
<rect x="0.710938" y="0.179688" width="35.9045" height="34.6874" rx="17.3437" fill="#F4F4F4"/>
<path d="M24.0075 11.1338H12.1033C11.9069 11.1352 11.7191 11.2139 11.5802 11.3527C11.4414 11.4915 11.3628 11.6794 11.3613 11.8757V23.78C11.3628 23.9763 11.4414 24.1642 11.5802 24.303C11.7191 24.4418 11.9069 24.5204 12.1033 24.5219H18.5128V19.3452H16.7724V17.3202H18.5128V15.8308C18.5128 14.1015 19.5671 13.1587 21.1179 13.1587C21.6367 13.1587 22.1555 13.1587 22.6743 13.2368V15.0387H21.6088C20.7665 15.0387 20.6047 15.4403 20.6047 16.026V17.3146H22.6129L22.3507 19.3396H20.6047V24.5219H24.0075C24.2038 24.5204 24.3917 24.4418 24.5305 24.303C24.6694 24.1642 24.748 23.9763 24.7494 23.78V11.8757C24.748 11.6794 24.6694 11.4915 24.5305 11.3527C24.3917 11.2139 24.2038 11.1352 24.0075 11.1338Z" fill="#838383"/>
</svg>
