<svg width="37" height="36" viewBox="0 0 37 36" fill="none" xmlns="http://www.w3.org/2000/svg">
<rect x="0.613281" y="0.788086" width="35.9045" height="34.6874" rx="17.3437" fill="#F4F4F4"/>
<path d="M12.3694 14.8674C12.9179 13.7752 13.7594 12.857 14.7998 12.2155C15.8401 11.574 17.0384 11.2345 18.2606 11.2349C20.0373 11.2349 21.5299 11.8875 22.6711 12.9522L20.781 14.843C20.0973 14.1897 19.2284 13.8568 18.2606 13.8568C16.5432 13.8568 15.0895 15.0171 14.572 16.5749C14.4402 16.9705 14.365 17.3924 14.365 17.8275C14.365 18.2626 14.4402 18.6845 14.572 19.0801C15.0902 20.6386 16.5432 21.7982 18.2606 21.7982C19.1473 21.7982 19.9022 21.5642 20.4929 21.1686C20.8353 20.9432 21.1285 20.6506 21.3547 20.3086C21.5808 19.9667 21.7353 19.5824 21.8088 19.179H18.2606V16.629H24.4695C24.5473 17.0601 24.5895 17.5097 24.5895 17.9772C24.5895 19.9853 23.8709 21.6756 22.6236 22.8227C21.5332 23.8301 20.0406 24.4201 18.2606 24.4201C17.3947 24.4205 16.5373 24.2502 15.7373 23.919C14.9373 23.5878 14.2104 23.1022 13.5981 22.49C12.9859 21.8777 12.5003 21.1508 12.1691 20.3508C11.8379 19.5508 11.6676 18.6934 11.668 17.8275C11.668 16.7634 11.9224 15.7574 12.3694 14.8674Z" fill="#838383"/>
</svg>
