<svg width="25" height="25" viewBox="0 0 25 25" fill="none" xmlns="http://www.w3.org/2000/svg">
<path d="M12.5801 3.27148C10.8001 3.27148 9.05999 3.79933 7.57995 4.78826C6.09991 5.77719 4.94636 7.1828 4.26517 8.82733C3.58398 10.4719 3.40575 12.2815 3.75301 14.0273C4.10028 15.7731 4.95745 17.3768 6.21612 18.6354C7.47479 19.8941 9.07844 20.7513 10.8243 21.0986C12.5701 21.4458 14.3797 21.2676 16.0242 20.5864C17.6688 19.9052 19.0744 18.7517 20.0633 17.2716C21.0522 15.7916 21.5801 14.0515 21.5801 12.2715C21.5801 11.8115 21.5401 11.3515 21.4801 10.9115C20.9804 11.6121 20.3202 12.1829 19.5547 12.5761C18.7892 12.9693 17.9407 13.1735 17.0801 13.1715C15.9353 13.1715 14.8201 12.8079 13.8953 12.1331C12.9705 11.4584 12.2839 10.5073 11.9346 9.41709C11.5853 8.32689 11.5913 7.15391 11.9517 6.06734C12.3122 4.98077 13.0084 4.03677 13.9401 3.37148C13.5001 3.31148 13.0401 3.27148 12.5801 3.27148Z" fill="black"/>
</svg>
