<svg width="25" height="25" viewBox="0 0 25 25" fill="none" xmlns="http://www.w3.org/2000/svg">
<path d="M12.5801 18.2715C10.9888 18.2715 9.46266 17.6393 8.33744 16.5141C7.21222 15.3889 6.58008 13.8628 6.58008 12.2715C6.58008 10.6802 7.21222 9.15406 8.33744 8.02884C9.46266 6.90363 10.9888 6.27148 12.5801 6.27148C14.1714 6.27148 15.6975 6.90363 16.8227 8.02884C17.9479 9.15406 18.5801 10.6802 18.5801 12.2715C18.5801 13.8628 17.9479 15.3889 16.8227 16.5141C15.6975 17.6393 14.1714 18.2715 12.5801 18.2715ZM11.5801 1.27148H13.5801V4.27148H11.5801V1.27148ZM11.5801 20.2715H13.5801V23.2715H11.5801V20.2715ZM4.09508 5.20048L5.50908 3.78648L7.63008 5.90748L6.21608 7.32148L4.09508 5.20048ZM17.5301 18.6355L18.9441 17.2215L21.0651 19.3425L19.6511 20.7565L17.5301 18.6355ZM19.6511 3.78548L21.0651 5.20048L18.9441 7.32148L17.5301 5.90748L19.6511 3.78648V3.78548ZM6.21608 17.2215L7.63008 18.6355L5.50908 20.7565L4.09508 19.3425L6.21608 17.2215ZM23.5801 11.2715V13.2715H20.5801V11.2715H23.5801ZM4.58008 11.2715V13.2715H1.58008V11.2715H4.58008Z" fill="black"/>
</svg>
