<svg width="42" height="32" viewBox="0 0 42 32" fill="none" xmlns="http://www.w3.org/2000/svg">
<path fill-rule="evenodd" clip-rule="evenodd" d="M29.9393 25.0577C28.6769 25.1302 27.416 25.1244 26.1537 25.1244C26.1449 25.1244 19.757 25.1244 19.757 25.1244C18.47 25.1244 17.2091 25.1302 15.9475 25.0577C14.8005 24.9924 13.6832 24.8531 12.571 24.5418C10.2299 23.8874 8.18544 22.5206 6.70761 20.5828C5.2385 18.6574 4.44336 16.3003 4.44336 13.88C4.44336 11.4569 5.2385 9.10122 6.70761 7.17577C8.18544 5.23871 10.2299 3.87116 12.571 3.21677C13.6832 2.90553 14.8005 2.76697 15.9475 2.70095C17.2091 2.6284 18.47 2.63493 19.7323 2.63493C19.741 2.63493 26.1304 2.6342 26.1304 2.6342C27.416 2.63493 28.6769 2.6284 29.9393 2.70095C31.0855 2.76697 32.2028 2.90554 33.315 3.21677C35.6561 3.87116 37.7006 5.23871 39.1784 7.17577C40.6475 9.10122 41.4434 11.4569 41.4434 13.8793C41.4434 16.3003 40.6475 18.6574 39.1784 20.5828C37.7006 22.5206 35.6561 23.8874 33.315 24.5418C32.2028 24.8531 31.0855 24.9924 29.9393 25.0577Z" fill="#151515"/>
<g filter="url(#filter0_dd_2329_466)">
<path fill-rule="evenodd" clip-rule="evenodd" d="M15.6883 4.0851C10.2792 4.0851 5.89419 8.47008 5.89419 13.8792C5.89419 19.2884 10.2792 23.6733 15.6883 23.6733C21.0974 23.6733 25.4824 19.2884 25.4824 13.8792C25.4824 8.47008 21.0974 4.0851 15.6883 4.0851Z" fill="url(#paint0_linear_2329_466)"/>
</g>
<defs>
<filter id="filter0_dd_2329_466" x="0.0906096" y="0.45751" width="31.1957" height="31.1962" filterUnits="userSpaceOnUse" color-interpolation-filters="sRGB">
<feFlood flood-opacity="0" result="BackgroundImageFix"/>
<feColorMatrix in="SourceAlpha" type="matrix" values="0 0 0 0 0 0 0 0 0 0 0 0 0 0 0 0 0 0 127 0" result="hardAlpha"/>
<feOffset dy="2.17647"/>
<feGaussianBlur stdDeviation="0.362745"/>
<feColorMatrix type="matrix" values="0 0 0 0 0 0 0 0 0 0 0 0 0 0 0 0 0 0 0.06 0"/>
<feBlend mode="normal" in2="BackgroundImageFix" result="effect1_dropShadow_2329_466"/>
<feColorMatrix in="SourceAlpha" type="matrix" values="0 0 0 0 0 0 0 0 0 0 0 0 0 0 0 0 0 0 127 0" result="hardAlpha"/>
<feOffset dy="2.17647"/>
<feGaussianBlur stdDeviation="2.90196"/>
<feColorMatrix type="matrix" values="0 0 0 0 0 0 0 0 0 0 0 0 0 0 0 0 0 0 0.15 0"/>
<feBlend mode="normal" in2="effect1_dropShadow_2329_466" result="effect2_dropShadow_2329_466"/>
<feBlend mode="normal" in="SourceGraphic" in2="effect2_dropShadow_2329_466" result="shape"/>
</filter>
<linearGradient id="paint0_linear_2329_466" x1="22.5905" y1="26.8866" x2="-3.93795" y2="18.0679" gradientUnits="userSpaceOnUse">
<stop stop-color="#FF56BB"/>
<stop offset="1" stop-color="#FF8F77"/>
</linearGradient>
</defs>
</svg>
