<svg width="36" height="36" viewBox="0 0 36 36" fill="none" xmlns="http://www.w3.org/2000/svg">
<rect x="0.519531" y="0.788086" width="35.2959" height="34.6874" rx="17.3437" fill="#F4F4F4"/>
<path d="M26.6542 13.2634C26.0294 13.5474 25.356 13.734 24.6582 13.8233C25.3722 13.3933 25.9239 12.7117 26.1836 11.8922C25.5101 12.2979 24.7636 12.5819 23.9766 12.7441C23.3356 12.0463 22.4349 11.6406 21.4125 11.6406C19.5058 11.6406 17.9479 13.1985 17.9479 15.1215C17.9479 15.3974 17.9803 15.6652 18.0371 15.9167C15.1485 15.7707 12.5764 14.3832 10.8643 12.2816C10.5641 12.7928 10.3937 13.3933 10.3937 14.0261C10.3937 15.2351 11.0023 16.3062 11.9435 16.9147C11.3674 16.9147 10.8319 16.7525 10.3613 16.509V16.5334C10.3613 18.2211 11.5621 19.6329 13.1525 19.9494C12.6419 20.0891 12.1059 20.1085 11.5865 20.0062C11.8069 20.6979 12.2385 21.3031 12.8206 21.7368C13.4028 22.1705 14.1062 22.4109 14.8321 22.4241C13.6017 23.3982 12.0766 23.9247 10.5073 23.9171C10.2314 23.9171 9.95556 23.9009 9.67969 23.8684C11.2213 24.8583 13.0551 25.4344 15.0187 25.4344C21.4125 25.4344 24.9259 20.1279 24.9259 15.5272C24.9259 15.3731 24.9259 15.227 24.9178 15.0729C25.5994 14.586 26.1836 13.9693 26.6542 13.2634Z" fill="#838383"/>
</svg>
