<svg width="17" height="17" viewBox="0 0 17 17" fill="none" xmlns="http://www.w3.org/2000/svg">
<g clip-path="url(#clip0_2353_448)">
<path d="M8.71875 2.47559C12.3188 2.47559 15.2188 5.37559 15.2188 8.97559C15.2188 12.5756 12.3188 15.4756 8.71875 15.4756C5.11875 15.4756 2.21875 12.5756 2.21875 8.97559C2.21875 5.37559 5.11875 2.47559 8.71875 2.47559ZM8.71875 0.975586C4.31875 0.975586 0.71875 4.57559 0.71875 8.97559C0.71875 13.3756 4.31875 16.9756 8.71875 16.9756C13.1187 16.9756 16.7188 13.3756 16.7188 8.97559C16.7188 4.57559 13.1187 0.975586 8.71875 0.975586Z" fill="black"/>
<path d="M10.6187 11.2756C10.1187 11.6756 9.41875 11.9756 8.71875 11.9756C7.01875 11.9756 5.71875 10.6756 5.71875 8.97559C5.71875 7.27559 7.01875 5.97559 8.71875 5.97559C9.51875 5.97559 10.3188 6.27559 10.8188 6.87559L11.9187 5.77559C11.1187 4.97559 9.91875 4.47559 8.71875 4.47559C6.21875 4.47559 4.21875 6.47559 4.21875 8.97559C4.21875 11.4756 6.21875 13.4756 8.71875 13.4756C9.81875 13.4756 10.7188 13.0756 11.5188 12.4756L10.6187 11.2756Z" fill="black"/>
</g>
<defs>
<clipPath id="clip0_2353_448">
<rect width="16" height="16" fill="white" transform="translate(0.71875 0.975586)"/>
</clipPath>
</defs>
</svg>
